<?xml version="1.0" standalone="no"?>
<!DOCTYPE svg PUBLIC "-//W3C//DTD SVG 20010904//EN"
 "http://www.w3.org/TR/2001/REC-SVG-20010904/DTD/svg10.dtd">
<svg version="1.0" xmlns="http://www.w3.org/2000/svg"
 width="16.000000pt" height="16.000000pt" viewBox="0 0 16.000000 16.000000"
 preserveAspectRatio="xMidYMid meet">
<metadata>
Created by potrace 1.11, written by Peter Selinger 2001-2013
</metadata>
<g transform="translate(0.000000,16.000000) scale(0.005333,-0.005333)"
fill="#000000" stroke="none">
<path d="M1258 2995 c-2 -1 -32 -5 -68 -8 -55 -5 -230 -29 -295 -41 -52 -10
-283 -65 -304 -73 l-23 -9 28 -19 c32 -20 73 -62 112 -113 l24 -32 -24 -19
c-39 -31 -77 -111 -84 -182 -12 -103 -5 -352 11 -452 2 -12 11 -76 19 -142 24
-182 25 -185 44 -185 14 0 18 10 19 48 2 82 21 133 68 179 l44 42 2 97 c3 196
58 306 164 333 40 10 50 9 86 -10 137 -70 385 -120 564 -114 158 4 264 36 350
105 27 21 44 28 59 24 128 -38 195 -163 200 -370 1 -53 5 -66 34 -98 39 -45
50 -83 51 -183 1 -39 5 -53 15 -53 20 0 23 7 30 65 4 28 8 61 11 75 2 14 6 45
9 70 3 25 11 81 16 125 6 44 13 157 16 250 6 233 -12 303 -96 379 -74 67 -165
93 -234 66 -24 -9 -25 -8 -24 41 0 112 -103 169 -357 194 -67 7 -461 15 -467
10z"/>
<path d="M1030 1708 c-56 -7 -75 -13 -235 -71 -89 -32 -90 -33 -91 -67 -1 -54
6 -68 34 -75 36 -9 60 -32 78 -74 91 -208 108 -227 227 -258 55 -15 77 -16
142 -6 140 20 213 91 255 245 17 63 19 86 11 110 -7 19 -7 36 -1 48 19 35 141
36 159 1 6 -10 4 -27 -3 -46 -11 -25 -10 -41 6 -98 52 -190 137 -261 313 -262
82 0 96 3 156 32 71 35 73 37 157 225 28 61 34 68 71 79 43 13 42 12 45 86 1
31 15 24 -219 104 -79 27 -104 31 -200 32 -60 0 -122 -3 -137 -6 -16 -4 -40
-9 -55 -12 -16 -3 -47 -18 -69 -34 -28 -19 -46 -26 -55 -20 -19 12 -166 11
-174 -1 -3 -5 -35 6 -73 25 -89 46 -209 61 -342 43z m270 -67 c65 -27 91 -69
96 -158 9 -174 -88 -284 -251 -286 -142 -1 -198 30 -247 138 -30 67 -33 215
-5 257 24 35 82 57 170 64 40 4 73 7 74 8 7 5 141 -14 163 -23z m807 -8 c62
-30 78 -62 77 -151 -2 -194 -82 -284 -254 -285 -99 -1 -158 21 -205 76 -86
100 -88 287 -4 349 60 45 304 52 386 11z"/>
<path d="M2292 1156 c-37 -116 -117 -246 -151 -246 -40 0 -51 -11 -51 -54 -1
-35 -5 -44 -32 -61 -23 -15 -35 -35 -48 -76 -25 -81 -24 -81 -76 -59 -25 11
-47 20 -48 20 -2 0 -18 -34 -36 -75 -18 -41 -35 -75 -39 -75 -3 0 -22 4 -41
10 -26 8 -39 6 -58 -6 -23 -15 -26 -14 -56 13 -40 38 -112 93 -120 93 -11 0
-109 -75 -135 -103 l-24 -26 -27 19 c-15 11 -30 17 -32 14 -3 -2 -20 -9 -37
-14 l-32 -9 -36 79 -35 78 -42 -19 c-22 -10 -46 -19 -52 -19 -6 0 -20 33 -33
73 -19 63 -26 75 -52 84 -25 10 -29 17 -30 50 -1 21 -1 41 0 45 0 3 -16 9 -37
13 -30 5 -44 17 -76 60 -51 72 -62 93 -92 191 -15 46 -30 84 -35 84 -5 0 -7
-49 -4 -112 3 -62 8 -145 10 -184 2 -46 10 -85 23 -111 11 -21 30 -77 41 -123
13 -54 32 -102 54 -134 47 -69 48 -72 53 -109 8 -69 18 -93 49 -129 45 -49 65
-81 96 -150 39 -88 102 -130 229 -154 14 -3 41 -9 61 -13 40 -9 70 -8 112 4
18 5 37 3 52 -5 18 -9 31 -10 54 -2 17 6 53 8 80 5 29 -3 78 1 122 10 41 9 86
18 101 21 26 4 126 74 127 89 2 24 75 152 115 201 28 35 46 67 47 84 2 57 8
95 16 101 27 18 74 106 87 164 9 36 27 94 40 127 19 46 27 88 32 173 10 167
12 267 5 267 -3 0 -21 -47 -39 -104z"/>
<path d="M1295 1027 c-111 -69 -183 -100 -231 -101 -24 -1 -44 -1 -44 -2 0 -9
53 -56 78 -68 68 -34 196 -23 326 29 91 37 117 36 226 -1 52 -18 109 -36 125
-39 49 -9 138 -7 166 3 27 11 89 59 89 71 0 4 -17 8 -37 9 -45 3 -119 36 -220
97 -81 50 -111 54 -164 26 -57 -31 -91 -32 -149 -5 -29 13 -62 24 -74 24 -12
0 -53 -19 -91 -43z"/>
</g>
</svg>
