<svg width="100" height="34" viewBox="0 0 100 34" xmlns="http://www.w3.org/2000/svg"><title>Shape</title><path d="M99.995 7.103c-.057-.607-2.192-1.218-2.192-1.218s-2.675-.666-5.465-1.792C89.55 2.968 83.851.841 81.238.477 78.626.113 72.332-.25 68.771.234 65.207.72 61.646 1.51 60.46 2.18c-1.186.668-2.373 1.458-2.908 1.885-.534.426-1.069.852-1.542.79-.477-.06-1.545-.79-1.545-.79s-2.822 0-4.464.017c-1.64-.017-4.462-.017-4.462-.017s-1.068.73-1.545.79c-.477.062-1.008-.364-1.544-.79-.534-.427-1.723-1.217-2.91-1.885-1.185-.67-4.747-1.459-8.31-1.946-3.561-.485-9.855-.121-12.467.243-2.61.364-8.311 2.492-11.1 3.616a46.8 46.8 0 0 1-5.46 1.792s-2.14.61-2.197 1.218c-.06.61.476 5.654.476 5.654s2.254.607 3.56 1.095c1.305.485 1.9 1.335 2.851 3.221.946 2.373 3.56 9 5.223 11.491 1.661 2.491 5.401 4.072 10.27 5.227 8.966.729 12.17-1.338 15.079-2.92 2.908-1.579 4.63-5.348 5.64-7.172 1.009-1.825 2.73-9.059 2.85-9.667.117-.608-.268-1.246-.593-1.732-.327-.487-.625-1.49-.504-2.19.117-.697.473-1.459 1.957-1.977.939-.327 2.31-.47 3.186-.532.88.062 2.248.205 3.189.532 1.483.518 1.838 1.278 1.956 1.977.12.7-.176 1.703-.505 2.19-.325.486-.71 1.124-.592 1.732.119.607 1.842 7.842 2.848 9.667 1.008 1.824 2.73 5.593 5.642 7.173 2.908 1.58 6.113 3.647 15.078 2.92 4.869-1.156 8.608-2.737 10.27-5.228 1.663-2.492 4.273-9.12 5.222-11.49.953-1.887 1.546-2.737 2.85-3.222 1.307-.488 3.564-1.095 3.564-1.095s.532-5.046.473-5.654zM39.824 24.476c-2.184 3.284-4.009 6.428-13.001 6.84-3.562 0-8.28-.047-11.754-3.33-1.248-1.413-3.516-4.696-4.14-7.887-.623-3.192-.881-7.685-.534-9.142 0 0 .474-2.82 1.602-4.035 1.129-1.216 2.227-2.098 5.017-2.767 2.79-.668 8.845-1.246 13.743-.821 0 0 4.44.485 6.218 1.354 1.781.865 4.543 3.1 4.943 6.658.4 3.554.531 8.888-2.094 13.13zm49.25-4.378c-.624 3.19-2.894 6.474-4.142 7.887-3.473 3.284-8.19 3.33-11.752 3.33-8.996-.412-10.821-3.557-13.004-6.84-2.626-4.242-2.492-9.576-2.092-13.132.4-3.557 3.161-5.792 4.942-6.657 1.781-.87 6.218-1.355 6.218-1.355 4.897-.424 10.953.155 13.743.821 2.79.67 3.889 1.552 5.015 2.767 1.129 1.216 1.604 4.036 1.604 4.036.349 1.458.09 5.95-.533 9.143z" fill="#03A9F4" fill-rule="evenodd"/></svg>